<svg xmlns="http://www.w3.org/2000/svg" width="2064" height="2752" viewBox="0 0 2064 2752">
  <title>KaizenOS — App Store screenshot frame 2064×2752</title>
  <desc>Background and caption slots. Drop the device capture into the dashed
  area. Colours are the app's own tokens.</desc>

  <defs>
    <radialGradient id="void" cx="0.5" cy="0.3" r="0.78">
      <stop offset="0%" stop-color="#0a0817"/>
      <stop offset="55%" stop-color="#04030a"/>
      <stop offset="100%" stop-color="#000000"/>
    </radialGradient>
    <radialGradient id="neb1" cx="0.3" cy="0.25" r="0.6">
      <stop offset="0%" stop-color="#4b3278" stop-opacity="0.30"/>
      <stop offset="70%" stop-color="#4b3278" stop-opacity="0"/>
    </radialGradient>
    <radialGradient id="neb2" cx="0.75" cy="0.75" r="0.5">
      <stop offset="0%" stop-color="#785032" stop-opacity="0.20"/>
      <stop offset="70%" stop-color="#785032" stop-opacity="0"/>
    </radialGradient>
    <radialGradient id="pedestal" cx="0.5" cy="0.5" r="0.5">
      <stop offset="0%" stop-color="#c8a84e" stop-opacity="0.13"/>
      <stop offset="100%" stop-color="#c8a84e" stop-opacity="0"/>
    </radialGradient>
  </defs>

  <rect width="2064" height="2752" fill="url(#void)"/>
  <rect width="2064" height="2752" fill="url(#neb1)"/>
  <rect width="2064" height="2752" fill="url(#neb2)"/>

  <g id="stars">
    <circle cx="1326" cy="617" r="2.0" fill="#ffffff" opacity="0.22"/>
    <circle cx="385" cy="1497" r="2.6" fill="#e8c870" opacity="0.47"/>
    <circle cx="153" cy="352" r="2.0" fill="#ffffff" opacity="0.32"/>
    <circle cx="1738" cy="242" r="2.6" fill="#e8c870" opacity="0.31"/>
    <circle cx="253" cy="2363" r="2.6" fill="#ffffff" opacity="0.74"/>
    <circle cx="190" cy="2280" r="1.2" fill="#ffffff" opacity="0.26"/>
    <circle cx="482" cy="2338" r="1.6" fill="#ffffff" opacity="0.57"/>
    <circle cx="422" cy="2382" r="2.6" fill="#ffffff" opacity="0.39"/>
    <circle cx="257" cy="2311" r="1.2" fill="#ffffff" opacity="0.46"/>
    <circle cx="1751" cy="1286" r="2.0" fill="#ffffff" opacity="0.44"/>
    <circle cx="1227" cy="1017" r="1.2" fill="#ffffff" opacity="0.32"/>
    <circle cx="1229" cy="2151" r="2.0" fill="#ffffff" opacity="0.6"/>
    <circle cx="1179" cy="2494" r="1.2" fill="#e8c870" opacity="0.42"/>
    <circle cx="1401" cy="622" r="2.0" fill="#ffffff" opacity="0.73"/>
    <circle cx="317" cy="2285" r="2.6" fill="#ffffff" opacity="0.65"/>
    <circle cx="1393" cy="1434" r="2.6" fill="#ffffff" opacity="0.63"/>
    <circle cx="281" cy="383" r="1.6" fill="#ffffff" opacity="0.56"/>
    <circle cx="248" cy="1268" r="2.6" fill="#ffffff" opacity="0.65"/>
    <circle cx="1165" cy="1580" r="1.6" fill="#e8c870" opacity="0.44"/>
    <circle cx="688" cy="2502" r="1.2" fill="#ffffff" opacity="0.3"/>
    <circle cx="1177" cy="529" r="1.2" fill="#ffffff" opacity="0.7"/>
    <circle cx="2033" cy="330" r="1.2" fill="#ffffff" opacity="0.49"/>
    <circle cx="560" cy="1763" r="2.6" fill="#e8c870" opacity="0.42"/>
    <circle cx="1469" cy="1558" r="1.2" fill="#e8c870" opacity="0.28"/>
    <circle cx="950" cy="2697" r="1.2" fill="#e8c870" opacity="0.65"/>
    <circle cx="746" cy="1076" r="1.6" fill="#e8c870" opacity="0.42"/>
    <circle cx="1512" cy="2497" r="2.6" fill="#ffffff" opacity="0.25"/>
    <circle cx="221" cy="1870" r="2.6" fill="#ffffff" opacity="0.41"/>
    <circle cx="424" cy="1972" r="2.0" fill="#e8c870" opacity="0.22"/>
    <circle cx="855" cy="1804" r="1.2" fill="#e8c870" opacity="0.52"/>
    <circle cx="419" cy="0" r="2.6" fill="#e8c870" opacity="0.24"/>
    <circle cx="1489" cy="2513" r="1.2" fill="#e8c870" opacity="0.3"/>
    <circle cx="1541" cy="608" r="1.6" fill="#ffffff" opacity="0.52"/>
    <circle cx="1942" cy="503" r="1.2" fill="#ffffff" opacity="0.75"/>
    <circle cx="1908" cy="1967" r="2.0" fill="#ffffff" opacity="0.26"/>
    <circle cx="1403" cy="1084" r="2.0" fill="#ffffff" opacity="0.27"/>
    <circle cx="94" cy="840" r="2.6" fill="#ffffff" opacity="0.57"/>
    <circle cx="110" cy="2163" r="1.6" fill="#ffffff" opacity="0.67"/>
    <circle cx="1069" cy="2123" r="1.6" fill="#ffffff" opacity="0.38"/>
    <circle cx="912" cy="2181" r="2.6" fill="#ffffff" opacity="0.37"/>
    <circle cx="913" cy="2511" r="1.2" fill="#ffffff" opacity="0.65"/>
    <circle cx="928" cy="818" r="2.6" fill="#ffffff" opacity="0.6"/>
    <circle cx="114" cy="1144" r="2.0" fill="#e8c870" opacity="0.57"/>
    <circle cx="1410" cy="1831" r="1.6" fill="#ffffff" opacity="0.39"/>
    <circle cx="903" cy="418" r="1.2" fill="#ffffff" opacity="0.37"/>
    <circle cx="1976" cy="2556" r="2.6" fill="#ffffff" opacity="0.45"/>
    <circle cx="1409" cy="2634" r="1.2" fill="#ffffff" opacity="0.25"/>
    <circle cx="1591" cy="816" r="2.0" fill="#ffffff" opacity="0.43"/>
    <circle cx="1361" cy="355" r="2.0" fill="#ffffff" opacity="0.6"/>
    <circle cx="347" cy="650" r="1.2" fill="#ffffff" opacity="0.2"/>
    <circle cx="1906" cy="2686" r="1.2" fill="#ffffff" opacity="0.52"/>
    <circle cx="1942" cy="2692" r="1.6" fill="#e8c870" opacity="0.49"/>
    <circle cx="87" cy="58" r="1.2" fill="#ffffff" opacity="0.71"/>
    <circle cx="1776" cy="797" r="1.2" fill="#e8c870" opacity="0.3"/>
    <circle cx="2052" cy="985" r="2.6" fill="#ffffff" opacity="0.49"/>
    <circle cx="536" cy="249" r="1.6" fill="#ffffff" opacity="0.56"/>
    <circle cx="1722" cy="2054" r="1.2" fill="#ffffff" opacity="0.48"/>
    <circle cx="76" cy="1802" r="1.2" fill="#ffffff" opacity="0.62"/>
    <circle cx="613" cy="705" r="1.2" fill="#ffffff" opacity="0.59"/>
    <circle cx="252" cy="1335" r="2.6" fill="#ffffff" opacity="0.46"/>
    <circle cx="434" cy="2294" r="1.2" fill="#e8c870" opacity="0.34"/>
    <circle cx="400" cy="2079" r="2.0" fill="#ffffff" opacity="0.61"/>
    <circle cx="259" cy="1815" r="1.6" fill="#ffffff" opacity="0.47"/>
    <circle cx="816" cy="1135" r="2.0" fill="#ffffff" opacity="0.64"/>
    <circle cx="1014" cy="2143" r="1.6" fill="#ffffff" opacity="0.69"/>
    <circle cx="829" cy="1833" r="1.2" fill="#ffffff" opacity="0.4"/>
    <circle cx="1294" cy="297" r="1.2" fill="#ffffff" opacity="0.3"/>
    <circle cx="1240" cy="501" r="1.2" fill="#ffffff" opacity="0.55"/>
    <circle cx="1499" cy="585" r="1.6" fill="#ffffff" opacity="0.73"/>
    <circle cx="899" cy="385" r="2.0" fill="#ffffff" opacity="0.27"/>
    <circle cx="916" cy="661" r="2.0" fill="#ffffff" opacity="0.41"/>
    <circle cx="1725" cy="801" r="1.6" fill="#ffffff" opacity="0.59"/>
    <circle cx="79" cy="1384" r="2.6" fill="#ffffff" opacity="0.58"/>
    <circle cx="1574" cy="1357" r="2.6" fill="#ffffff" opacity="0.47"/>
    <circle cx="263" cy="462" r="1.2" fill="#ffffff" opacity="0.24"/>
    <circle cx="1087" cy="1113" r="1.2" fill="#ffffff" opacity="0.28"/>
    <circle cx="530" cy="1729" r="1.6" fill="#ffffff" opacity="0.49"/>
    <circle cx="2025" cy="1339" r="1.2" fill="#e8c870" opacity="0.64"/>
    <circle cx="750" cy="1742" r="1.2" fill="#e8c870" opacity="0.19"/>
    <circle cx="362" cy="1067" r="1.2" fill="#ffffff" opacity="0.31"/>
    <circle cx="1083" cy="498" r="2.0" fill="#e8c870" opacity="0.75"/>
    <circle cx="1711" cy="1097" r="2.6" fill="#e8c870" opacity="0.48"/>
    <circle cx="976" cy="448" r="1.2" fill="#e8c870" opacity="0.28"/>
    <circle cx="1277" cy="2575" r="1.6" fill="#ffffff" opacity="0.3"/>
    <circle cx="1825" cy="2048" r="1.2" fill="#e8c870" opacity="0.64"/>
    <circle cx="1025" cy="151" r="1.2" fill="#e8c870" opacity="0.47"/>
    <circle cx="776" cy="2106" r="2.0" fill="#e8c870" opacity="0.43"/>
    <circle cx="1770" cy="2689" r="2.0" fill="#ffffff" opacity="0.69"/>
    <circle cx="1260" cy="881" r="1.2" fill="#ffffff" opacity="0.65"/>
    <circle cx="572" cy="1657" r="1.6" fill="#ffffff" opacity="0.66"/>
    <circle cx="58" cy="289" r="1.6" fill="#ffffff" opacity="0.21"/>
    <circle cx="1560" cy="2072" r="1.6" fill="#ffffff" opacity="0.57"/>
    <circle cx="185" cy="1881" r="1.2" fill="#e8c870" opacity="0.43"/>
    <circle cx="1078" cy="1491" r="1.6" fill="#ffffff" opacity="0.49"/>
    <circle cx="1001" cy="141" r="1.6" fill="#e8c870" opacity="0.28"/>
    <circle cx="1373" cy="1563" r="1.2" fill="#ffffff" opacity="0.47"/>
    <circle cx="823" cy="1016" r="2.6" fill="#ffffff" opacity="0.23"/>
    <circle cx="367" cy="589" r="2.0" fill="#ffffff" opacity="0.4"/>
    <circle cx="1227" cy="1246" r="1.2" fill="#e8c870" opacity="0.73"/>
    <circle cx="635" cy="2693" r="2.6" fill="#ffffff" opacity="0.37"/>
    <circle cx="2024" cy="612" r="1.6" fill="#ffffff" opacity="0.55"/>
    <circle cx="179" cy="2101" r="2.0" fill="#ffffff" opacity="0.64"/>
    <circle cx="570" cy="2145" r="2.6" fill="#ffffff" opacity="0.64"/>
    <circle cx="65" cy="2392" r="1.2" fill="#e8c870" opacity="0.2"/>
    <circle cx="1477" cy="429" r="2.0" fill="#ffffff" opacity="0.5"/>
    <circle cx="77" cy="2565" r="2.6" fill="#ffffff" opacity="0.46"/>
    <circle cx="13" cy="1871" r="1.2" fill="#ffffff" opacity="0.47"/>
    <circle cx="376" cy="2700" r="2.6" fill="#e8c870" opacity="0.6"/>
    <circle cx="1032" cy="304" r="1.6" fill="#e8c870" opacity="0.61"/>
    <circle cx="945" cy="2662" r="2.0" fill="#ffffff" opacity="0.4"/>
    <circle cx="1962" cy="1176" r="1.2" fill="#ffffff" opacity="0.55"/>
    <circle cx="317" cy="2456" r="1.2" fill="#ffffff" opacity="0.55"/>
    <circle cx="1246" cy="2544" r="2.6" fill="#e8c870" opacity="0.45"/>
    <circle cx="1989" cy="1100" r="1.2" fill="#ffffff" opacity="0.57"/>
    <circle cx="1191" cy="2115" r="1.6" fill="#ffffff" opacity="0.45"/>
    <circle cx="485" cy="2249" r="1.2" fill="#ffffff" opacity="0.23"/>
    <circle cx="1937" cy="71" r="1.6" fill="#ffffff" opacity="0.65"/>
    <circle cx="1840" cy="1100" r="2.0" fill="#e8c870" opacity="0.72"/>
    <circle cx="863" cy="305" r="2.6" fill="#e8c870" opacity="0.61"/>
    <circle cx="1072" cy="1472" r="1.2" fill="#ffffff" opacity="0.54"/>
    <circle cx="1145" cy="461" r="1.6" fill="#e8c870" opacity="0.69"/>
    <circle cx="1991" cy="1614" r="1.2" fill="#e8c870" opacity="0.72"/>
    <circle cx="1846" cy="1660" r="1.6" fill="#ffffff" opacity="0.42"/>
    <circle cx="1540" cy="1294" r="1.2" fill="#ffffff" opacity="0.18"/>
    <circle cx="1385" cy="1631" r="1.2" fill="#ffffff" opacity="0.29"/>
    <circle cx="48" cy="1187" r="1.6" fill="#ffffff" opacity="0.4"/>
    <circle cx="312" cy="1477" r="2.0" fill="#ffffff" opacity="0.67"/>
    <circle cx="1149" cy="416" r="1.2" fill="#ffffff" opacity="0.34"/>
    <circle cx="609" cy="1021" r="1.6" fill="#ffffff" opacity="0.36"/>
    <circle cx="1529" cy="1752" r="1.2" fill="#ffffff" opacity="0.54"/>
    <circle cx="833" cy="330" r="1.2" fill="#ffffff" opacity="0.41"/>
    <circle cx="567" cy="2639" r="1.6" fill="#ffffff" opacity="0.7"/>
    <circle cx="521" cy="699" r="2.0" fill="#ffffff" opacity="0.34"/>
    <circle cx="1047" cy="2673" r="1.6" fill="#ffffff" opacity="0.32"/>
    <circle cx="1979" cy="2282" r="2.0" fill="#e8c870" opacity="0.55"/>
    <circle cx="307" cy="851" r="2.6" fill="#ffffff" opacity="0.46"/>
    <circle cx="901" cy="1855" r="1.6" fill="#ffffff" opacity="0.44"/>
    <circle cx="571" cy="2243" r="1.2" fill="#e8c870" opacity="0.28"/>
    <circle cx="373" cy="1307" r="1.2" fill="#ffffff" opacity="0.64"/>
    <circle cx="827" cy="82" r="2.0" fill="#ffffff" opacity="0.61"/>
    <circle cx="860" cy="1543" r="1.6" fill="#ffffff" opacity="0.22"/>
    <circle cx="1136" cy="2352" r="1.6" fill="#e8c870" opacity="0.47"/>
    <circle cx="884" cy="379" r="1.6" fill="#ffffff" opacity="0.4"/>
    <circle cx="1826" cy="1768" r="1.6" fill="#ffffff" opacity="0.68"/>
    <circle cx="89" cy="521" r="1.2" fill="#ffffff" opacity="0.62"/>
    <circle cx="1938" cy="2405" r="2.0" fill="#e8c870" opacity="0.4"/>
    <circle cx="1917" cy="1838" r="1.2" fill="#ffffff" opacity="0.31"/>
    <circle cx="622" cy="2139" r="1.2" fill="#ffffff" opacity="0.59"/>
    <circle cx="1873" cy="348" r="2.6" fill="#ffffff" opacity="0.18"/>
    <circle cx="514" cy="952" r="2.6" fill="#ffffff" opacity="0.55"/>
    <circle cx="1244" cy="524" r="1.6" fill="#ffffff" opacity="0.43"/>
    <circle cx="459" cy="407" r="1.2" fill="#ffffff" opacity="0.72"/>
    <circle cx="785" cy="1589" r="1.6" fill="#e8c870" opacity="0.52"/>
    <circle cx="42" cy="2201" r="1.6" fill="#ffffff" opacity="0.34"/>
    <circle cx="1295" cy="2640" r="1.2" fill="#ffffff" opacity="0.31"/>
    <circle cx="1011" cy="119" r="2.0" fill="#ffffff" opacity="0.36"/>
    <circle cx="89" cy="795" r="2.0" fill="#ffffff" opacity="0.55"/>
    <circle cx="332" cy="1053" r="1.2" fill="#ffffff" opacity="0.71"/>
    <circle cx="928" cy="2019" r="1.2" fill="#ffffff" opacity="0.59"/>
    <circle cx="1484" cy="1623" r="1.2" fill="#e8c870" opacity="0.35"/>
    <circle cx="276" cy="840" r="2.0" fill="#ffffff" opacity="0.36"/>
    <circle cx="794" cy="945" r="2.0" fill="#e8c870" opacity="0.61"/>
    <circle cx="1208" cy="446" r="2.6" fill="#ffffff" opacity="0.29"/>
    <circle cx="914" cy="1986" r="2.0" fill="#ffffff" opacity="0.21"/>
    <circle cx="599" cy="1611" r="1.2" fill="#e8c870" opacity="0.74"/>
    <circle cx="581" cy="1701" r="1.2" fill="#ffffff" opacity="0.28"/>
    <circle cx="1841" cy="1286" r="1.2" fill="#ffffff" opacity="0.71"/>
    <circle cx="1348" cy="781" r="1.2" fill="#ffffff" opacity="0.48"/>
    <circle cx="1915" cy="130" r="1.6" fill="#ffffff" opacity="0.4"/>
    <circle cx="1531" cy="1358" r="2.0" fill="#e8c870" opacity="0.18"/>
    <circle cx="1146" cy="330" r="1.6" fill="#ffffff" opacity="0.68"/>
    <circle cx="849" cy="1557" r="1.6" fill="#ffffff" opacity="0.36"/>
    <circle cx="1771" cy="359" r="1.2" fill="#ffffff" opacity="0.29"/>
    <circle cx="1828" cy="790" r="1.6" fill="#ffffff" opacity="0.69"/>
    <circle cx="124" cy="2587" r="2.0" fill="#e8c870" opacity="0.54"/>
    <circle cx="1657" cy="166" r="2.0" fill="#e8c870" opacity="0.22"/>
    <circle cx="253" cy="1052" r="1.2" fill="#ffffff" opacity="0.69"/>
    <circle cx="1388" cy="1486" r="1.6" fill="#ffffff" opacity="0.72"/>
    <circle cx="178" cy="1073" r="1.6" fill="#ffffff" opacity="0.35"/>
    <circle cx="267" cy="99" r="1.2" fill="#e8c870" opacity="0.59"/>
    <circle cx="1907" cy="1583" r="1.6" fill="#ffffff" opacity="0.64"/>
    <circle cx="543" cy="2033" r="1.2" fill="#e8c870" opacity="0.71"/>
    <circle cx="1242" cy="619" r="2.6" fill="#e8c870" opacity="0.67"/>
    <circle cx="1887" cy="1482" r="2.6" fill="#e8c870" opacity="0.29"/>
    <circle cx="655" cy="1012" r="2.0" fill="#e8c870" opacity="0.2"/>
    <circle cx="1334" cy="658" r="2.0" fill="#ffffff" opacity="0.74"/>
    <circle cx="1084" cy="2558" r="1.2" fill="#e8c870" opacity="0.42"/>
    <circle cx="1830" cy="709" r="1.2" fill="#e8c870" opacity="0.44"/>
    <circle cx="962" cy="2205" r="1.2" fill="#ffffff" opacity="0.35"/>
    <circle cx="1144" cy="2321" r="1.6" fill="#ffffff" opacity="0.6"/>
    <circle cx="815" cy="1799" r="1.2" fill="#e8c870" opacity="0.31"/>
    <circle cx="1152" cy="2368" r="1.2" fill="#ffffff" opacity="0.41"/>
    <circle cx="1007" cy="2078" r="2.6" fill="#e8c870" opacity="0.64"/>
    <circle cx="1900" cy="151" r="1.2" fill="#e8c870" opacity="0.68"/>
    <circle cx="946" cy="1836" r="1.6" fill="#e8c870" opacity="0.35"/>
    <circle cx="488" cy="206" r="1.2" fill="#ffffff" opacity="0.65"/>
    <circle cx="795" cy="307" r="1.6" fill="#ffffff" opacity="0.28"/>
    <circle cx="1064" cy="2722" r="1.2" fill="#e8c870" opacity="0.52"/>
    <circle cx="1432" cy="891" r="1.2" fill="#ffffff" opacity="0.26"/>
    <circle cx="835" cy="1044" r="1.2" fill="#ffffff" opacity="0.55"/>
    <circle cx="833" cy="46" r="1.6" fill="#ffffff" opacity="0.39"/>
    <circle cx="1278" cy="319" r="1.2" fill="#e8c870" opacity="0.46"/>
    <circle cx="1980" cy="259" r="2.0" fill="#e8c870" opacity="0.41"/>
    <circle cx="633" cy="2618" r="2.6" fill="#e8c870" opacity="0.27"/>
    <circle cx="1110" cy="1678" r="1.6" fill="#ffffff" opacity="0.42"/>
    <circle cx="210" cy="1279" r="2.6" fill="#ffffff" opacity="0.42"/>
    <circle cx="74" cy="1490" r="1.2" fill="#ffffff" opacity="0.41"/>
    <circle cx="24" cy="1778" r="1.2" fill="#ffffff" opacity="0.65"/>
    <circle cx="1663" cy="2366" r="1.6" fill="#ffffff" opacity="0.27"/>
    <circle cx="60" cy="211" r="2.6" fill="#e8c870" opacity="0.64"/>
    <circle cx="1624" cy="364" r="2.6" fill="#ffffff" opacity="0.39"/>
    <circle cx="703" cy="597" r="1.6" fill="#ffffff" opacity="0.48"/>
    <circle cx="274" cy="445" r="2.0" fill="#ffffff" opacity="0.64"/>
    <circle cx="808" cy="1235" r="1.2" fill="#ffffff" opacity="0.2"/>
    <circle cx="1977" cy="1288" r="1.2" fill="#ffffff" opacity="0.54"/>
    <circle cx="353" cy="2540" r="1.2" fill="#ffffff" opacity="0.67"/>
    <circle cx="1656" cy="2517" r="1.2" fill="#ffffff" opacity="0.28"/>
    <circle cx="893" cy="170" r="2.0" fill="#ffffff" opacity="0.27"/>
    <circle cx="1471" cy="504" r="1.2" fill="#e8c870" opacity="0.59"/>
    <circle cx="788" cy="168" r="2.6" fill="#ffffff" opacity="0.56"/>
    <circle cx="1327" cy="482" r="2.0" fill="#ffffff" opacity="0.49"/>
    <circle cx="1254" cy="2658" r="2.0" fill="#ffffff" opacity="0.32"/>
    <circle cx="1594" cy="2698" r="1.6" fill="#ffffff" opacity="0.43"/>
    <circle cx="95" cy="14" r="2.6" fill="#ffffff" opacity="0.45"/>
    <circle cx="1830" cy="2533" r="2.0" fill="#ffffff" opacity="0.64"/>
    <circle cx="1639" cy="438" r="1.2" fill="#e8c870" opacity="0.43"/>
    <circle cx="375" cy="1810" r="2.6" fill="#ffffff" opacity="0.2"/>
    <circle cx="533" cy="336" r="1.6" fill="#ffffff" opacity="0.47"/>
    <circle cx="222" cy="2064" r="2.0" fill="#ffffff" opacity="0.63"/>
    <circle cx="105" cy="271" r="2.6" fill="#ffffff" opacity="0.64"/>
    <circle cx="793" cy="539" r="2.0" fill="#ffffff" opacity="0.64"/>
    <circle cx="676" cy="905" r="1.2" fill="#ffffff" opacity="0.53"/>
    <circle cx="1033" cy="650" r="1.6" fill="#ffffff" opacity="0.34"/>
    <circle cx="1869" cy="588" r="1.6" fill="#ffffff" opacity="0.7"/>
    <circle cx="853" cy="2424" r="1.6" fill="#ffffff" opacity="0.32"/>
    <circle cx="1524" cy="150" r="1.2" fill="#e8c870" opacity="0.27"/>
  </g>

  <text x="1032" y="294" text-anchor="middle"
        font-family="SF Pro Display, -apple-system, Helvetica Neue, Arial, sans-serif"
        font-size="150" font-weight="700" letter-spacing="-1" fill="#f4ecd2">Just talk.</text>
  <text x="1032" y="390" text-anchor="middle"
        font-family="SF Pro Text, -apple-system, Helvetica Neue, Arial, sans-serif"
        font-size="66" font-weight="400" fill="#e8c870" opacity="0.82">Kaiso asks what a good advisor would.</text>

  <ellipse cx="1032" cy="1560" rx="1005" ry="500" fill="url(#pedestal)"/>
  <rect x="282" y="560" width="1500" height="2000" rx="109"
        fill="none" stroke="#c8a84e" stroke-opacity="0.18" stroke-width="2" stroke-dasharray="14 12"/>
  <text x="1032" y="1560" text-anchor="middle"
        font-family="SF Pro Text, -apple-system, Helvetica Neue, Arial, sans-serif"
        font-size="48" fill="#c8a84e" opacity="0.45">device capture goes here · 1500 × 2000</text>
</svg>
